<?xml version="1.0" encoding="UTF-8"?>
<svg width="1024" height="1024" viewBox="0 0 1024 1024" fill="none" xmlns="http://www.w3.org/2000/svg">
  <defs>
    <linearGradient id="bg" x1="0" y1="0" x2="1024" y2="1024" gradientUnits="userSpaceOnUse">
      <stop stop-color="#F7F2EA"/>
      <stop offset="1" stop-color="#EFE6D9"/>
    </linearGradient>
    <linearGradient id="panel" x1="130" y1="120" x2="894" y2="904" gradientUnits="userSpaceOnUse">
      <stop stop-color="#FFFFFF" stop-opacity="0.95"/>
      <stop offset="1" stop-color="#F8F2E8" stop-opacity="0.98"/>
    </linearGradient>
  </defs>
  <rect width="1024" height="1024" fill="url(#bg)"/>
  <circle cx="850" cy="180" r="170" fill="#C89E6B" fill-opacity="0.15"/>
  <circle cx="220" cy="840" r="190" fill="#C89E6B" fill-opacity="0.10"/>
  <rect x="120" y="120" width="784" height="784" rx="40" fill="url(#panel)" stroke="#D6C8B8" stroke-width="2"/>
  <rect x="176" y="214" width="672" height="420" rx="26" fill="#FBF7F0" stroke="#DDCFBE"/>
  <rect x="206" y="264" width="300" height="16" rx="8" fill="#D4C6B5"/>
  <rect x="206" y="296" width="220" height="12" rx="6" fill="#E3D8CA"/>
  <rect x="206" y="330" width="420" height="12" rx="6" fill="#E7DDCF"/>
  <rect x="206" y="364" width="360" height="12" rx="6" fill="#E7DDCF"/>
  <rect x="560" y="264" width="258" height="258" rx="22" fill="#C89E6B" fill-opacity="0.18" stroke="#C89E6B" stroke-opacity="0.45"/>
  <rect x="176" y="666" width="672" height="174" rx="24" fill="#FFFDFC" stroke="#E0D4C5"/>
  <text x="206" y="742" fill="#2D241A" font-family="Segoe UI, Arial, sans-serif" font-size="38" font-weight="600">AI Helper</text>
  <text x="206" y="786" fill="#665848" font-family="Segoe UI, Arial, sans-serif" font-size="24">Onboarding step1</text>
</svg>